<svg width="455" height="316" viewBox="0 0 455 316" fill="none" xmlns="http://www.w3.org/2000/svg">
<g opacity="0.2">
<path d="M157.505 290.467C157.733 291.438 158.037 292.389 158.413 293.309C164.258 290.929 170.168 288.648 176.142 286.466C176.092 286.209 176.041 285.939 175.978 285.673C175.376 282.931 174.092 280.4 172.252 278.333C169.864 275.718 166.786 274.454 163.792 275.225C160.798 275.997 158.623 278.638 157.631 282.112C156.889 284.838 156.846 287.718 157.505 290.467Z" fill="#3F3D56"/>
<path d="M165.903 285.268C171.035 284.08 173.952 277.348 172.418 270.232C170.885 263.116 165.482 258.31 160.35 259.498C155.219 260.686 152.302 267.418 153.835 274.534C155.369 281.65 160.772 286.456 165.903 285.268Z" fill="#3F3D56"/>
<path d="M162.302 269.57C167.434 268.382 170.351 261.65 168.818 254.534C167.284 247.418 161.881 242.612 156.749 243.8C151.618 244.988 148.701 251.72 150.234 258.836C151.768 265.952 157.171 270.758 162.302 269.57Z" fill="#3F3D56"/>
<path d="M158.694 253.881C163.826 252.693 166.743 245.961 165.209 238.845C163.676 231.729 158.273 226.924 153.141 228.112C148.01 229.299 145.093 236.031 146.626 243.147C148.159 250.263 153.562 255.069 158.694 253.881Z" fill="#3F3D56"/>
<path d="M155.086 238.188C160.217 237 163.134 230.269 161.601 223.153C160.067 216.036 154.664 211.231 149.533 212.419C144.401 213.607 141.484 220.338 143.018 227.454C144.551 234.57 149.954 239.376 155.086 238.188Z" fill="#3F3D56"/>
<path d="M162.21 108.939C163.085 106.905 163.824 104.811 164.422 102.672L139.191 104.729L165.49 98.1343C166.747 91.2793 166.588 84.2262 165.024 77.4396C163.652 71.4315 161.194 65.7476 157.778 60.6894L126.996 89.2166L153.645 55.4503C142.766 43.4118 126.311 37.6846 109.957 41.9386C85.5207 48.2717 70.546 74.4408 76.509 100.388C78.8793 110.868 84.5616 120.227 92.6526 126.975C91.2933 130.143 90.2602 133.451 89.5703 136.843L125.07 146.057L88.7292 142.793C88.2946 148.052 88.675 153.349 89.8562 158.484C92.2306 168.963 97.9139 178.321 106.004 185.071C101.752 194.966 100.771 206.039 103.212 216.571C109.175 242.518 133.817 258.414 158.253 252.085C182.69 245.756 197.664 219.587 191.701 193.64C189.327 183.161 183.644 173.803 175.553 167.053C179.805 157.158 180.787 146.085 178.346 135.553C175.982 125.065 170.302 115.697 162.21 108.939Z" fill="#6C63FF"/>
<path opacity="0.1" d="M89.8646 158.466C92.2391 168.946 97.9223 178.304 106.013 185.054C101.761 194.949 100.779 206.022 103.22 216.554C109.183 242.501 133.826 258.396 158.262 252.068C182.698 245.739 197.673 219.57 191.71 193.623C189.335 183.143 183.652 173.786 175.562 167.035C179.658 157.507 88.6536 153.205 89.8646 158.466Z" fill="black"/>
</g>
<g opacity="0.2">
<path d="M270.914 285.677C270.761 286.812 270.701 287.958 270.733 289.103C278.064 289.225 285.423 289.481 292.811 289.87C292.861 289.569 292.911 289.264 292.954 288.955C293.43 285.759 293.074 282.489 291.923 279.483C290.401 275.639 287.563 272.889 284.009 272.357C280.456 271.825 276.991 273.639 274.489 276.873C272.562 279.425 271.328 282.465 270.914 285.677Z" fill="#3F3D56"/>
<path d="M295.505 270.694C296.65 262.436 292.644 255.006 286.557 254.099C280.469 253.192 274.606 259.151 273.461 267.41C272.316 275.668 276.322 283.098 282.409 284.005C288.496 284.912 294.36 278.953 295.505 270.694Z" fill="#3F3D56"/>
<path d="M298.038 252.416C299.184 244.158 295.177 236.728 289.09 235.821C283.003 234.914 277.14 240.874 275.994 249.132C274.849 257.391 278.855 264.821 284.943 265.728C291.03 266.635 296.893 260.675 298.038 252.416Z" fill="#3F3D56"/>
<path d="M300.571 234.143C301.716 225.885 297.71 218.455 291.623 217.548C285.536 216.641 279.672 222.6 278.527 230.859C277.382 239.117 281.388 246.547 287.475 247.454C293.563 248.361 299.426 242.401 300.571 234.143Z" fill="#3F3D56"/>
<path d="M303.109 215.866C304.254 207.608 300.248 200.178 294.161 199.271C288.073 198.364 282.21 204.323 281.065 212.582C279.919 220.84 283.926 228.27 290.013 229.177C296.1 230.084 301.963 224.124 303.109 215.866Z" fill="#3F3D56"/>
<path d="M350.67 95.2881C352.452 93.5222 354.113 91.6289 355.64 89.6219L327.369 80.4165L358.651 85.32C362.594 78.9919 365.25 71.8968 366.456 64.4684C367.663 57.0401 367.395 49.4347 365.669 42.1173L320.523 58.436L363.365 34.6815C360.636 27.6384 356.538 21.2531 351.324 15.9235C346.111 10.5939 339.894 6.43407 333.062 3.70327C326.23 0.972459 318.928 -0.270865 311.612 0.0507569C304.296 0.372379 297.122 2.25205 290.538 5.57268C283.953 8.89331 278.099 13.5837 273.34 19.3518C268.58 25.1198 265.018 31.8419 262.874 39.0992C260.731 46.3565 260.052 53.9936 260.88 61.5347C261.709 69.0758 264.026 76.3592 267.689 82.9314C264.919 85.6745 262.442 88.7184 260.3 92.0104L295.081 117.848L256.936 97.9382C252.924 106.141 250.947 115.251 251.187 124.444C251.426 133.638 253.873 142.624 258.307 150.59C251.063 157.748 245.909 166.875 243.434 176.926C240.959 186.977 241.262 197.548 244.309 207.428C247.357 217.309 253.025 226.102 260.667 232.801C268.308 239.5 277.614 243.836 287.521 245.311C297.427 246.787 307.534 245.343 316.687 241.146C325.839 236.948 333.667 230.166 339.276 221.575C344.885 212.983 348.048 202.929 348.403 192.563C348.759 182.196 346.293 171.934 341.288 162.951C349.945 154.397 355.576 143.074 357.278 130.803C358.979 118.531 356.652 106.024 350.67 95.2881Z" fill="#6C63FF"/>
<path opacity="0.1" d="M251.701 115.076C249.981 127.348 252.309 139.861 258.307 150.59C251.063 157.748 245.909 166.875 243.434 176.926C240.959 186.977 241.262 197.547 244.309 207.428C247.357 217.309 253.025 226.102 260.667 232.801C268.308 239.5 277.614 243.836 287.521 245.311C297.427 246.787 307.534 245.343 316.687 241.146C325.839 236.948 333.667 230.166 339.276 221.575C344.885 212.983 348.048 202.929 348.403 192.563C348.759 182.196 346.293 171.934 341.288 162.951C349.656 154.692 252.554 108.935 251.701 115.076Z" fill="black"/>
</g>
<path opacity="0.1" d="M227.5 316C353.145 316 455 309.951 455 302.488C455 295.026 353.145 288.977 227.5 288.977C101.855 288.977 0 295.026 0 302.488C0 309.951 101.855 316 227.5 316Z" fill="#6C63FF"/>
<path d="M376.237 297.044C382.113 297.044 386.876 296.094 386.876 294.922C386.876 293.749 382.113 292.799 376.237 292.799C370.361 292.799 365.598 293.749 365.598 294.922C365.598 296.094 370.361 297.044 376.237 297.044Z" fill="#6C63FF"/>
<path d="M376.06 295.706C376.746 295.706 377.301 294.953 377.301 294.024C377.301 293.095 376.746 292.341 376.06 292.341C375.375 292.341 374.82 293.095 374.82 294.024C374.82 294.953 375.375 295.706 376.06 295.706Z" fill="#3F3D56"/>
<path d="M376.06 293.649C376.746 293.649 377.301 292.896 377.301 291.967C377.301 291.037 376.746 290.284 376.06 290.284C375.375 290.284 374.82 291.037 374.82 291.967C374.82 292.896 375.375 293.649 376.06 293.649Z" fill="#3F3D56"/>
<path d="M376.06 291.596C376.746 291.596 377.301 290.843 377.301 289.914C377.301 288.984 376.746 288.231 376.06 288.231C375.375 288.231 374.82 288.984 374.82 289.914C374.82 290.843 375.375 291.596 376.06 291.596Z" fill="#3F3D56"/>
<path d="M376.06 289.543C376.746 289.543 377.301 288.79 377.301 287.861C377.301 286.932 376.746 286.178 376.06 286.178C375.375 286.178 374.82 286.932 374.82 287.861C374.82 288.79 375.375 289.543 376.06 289.543Z" fill="#3F3D56"/>
<path d="M376.06 287.486C376.746 287.486 377.301 286.733 377.301 285.803C377.301 284.874 376.746 284.121 376.06 284.121C375.375 284.121 374.82 284.874 374.82 285.803C374.82 286.733 375.375 287.486 376.06 287.486Z" fill="#3F3D56"/>
<path d="M376.06 285.433C376.746 285.433 377.301 284.68 377.301 283.751C377.301 282.821 376.746 282.068 376.06 282.068C375.375 282.068 374.82 282.821 374.82 283.751C374.82 284.68 375.375 285.433 376.06 285.433Z" fill="#3F3D56"/>
<path d="M376.06 283.38C376.746 283.38 377.301 282.627 377.301 281.698C377.301 280.769 376.746 280.015 376.06 280.015C375.375 280.015 374.82 280.769 374.82 281.698C374.82 282.627 375.375 283.38 376.06 283.38Z" fill="#3F3D56"/>
<path d="M380.695 267.641C380.865 267.418 381.019 267.182 381.157 266.935L377.902 266.381L381.422 266.408C381.759 265.646 381.943 264.821 381.963 263.983C381.982 263.145 381.837 262.312 381.536 261.535L376.813 264.076L381.17 260.754C380.763 260.019 380.215 259.379 379.559 258.874C378.902 258.369 378.153 258.01 377.356 257.819C376.56 257.628 375.734 257.61 374.931 257.765C374.127 257.92 373.363 258.245 372.687 258.721C372.01 259.196 371.436 259.811 370.999 260.527C370.562 261.243 370.273 262.045 370.149 262.882C370.025 263.72 370.07 264.575 370.279 265.394C370.489 266.212 370.859 266.978 371.367 267.641C371.104 267.989 370.877 268.364 370.69 268.761L374.896 271.036L370.392 269.467C370.076 270.439 370 271.476 370.171 272.486C370.341 273.495 370.752 274.444 371.367 275.247C370.679 276.154 370.251 277.244 370.132 278.391C370.012 279.539 370.207 280.698 370.694 281.736C371.18 282.774 371.939 283.65 372.883 284.262C373.826 284.874 374.917 285.199 376.031 285.199C377.145 285.199 378.236 284.874 379.179 284.262C380.123 283.65 380.882 282.774 381.368 281.736C381.855 280.698 382.05 279.539 381.93 278.391C381.811 277.244 381.383 276.154 380.695 275.247C381.517 274.163 381.964 272.825 381.964 271.446C381.964 270.067 381.517 268.729 380.695 267.645V267.641Z" fill="#6C63FF"/>
<path opacity="0.1" d="M370.098 271.442C370.094 272.82 370.538 274.159 371.359 275.243C370.671 276.15 370.242 277.239 370.123 278.387C370.004 279.534 370.199 280.694 370.685 281.732C371.172 282.77 371.93 283.645 372.874 284.258C373.818 284.87 374.909 285.195 376.023 285.195C377.136 285.195 378.227 284.87 379.171 284.258C380.115 283.645 380.873 282.77 381.36 281.732C381.846 280.694 382.041 279.534 381.922 278.387C381.803 277.239 381.375 276.15 380.686 275.243C381.489 274.196 370.098 270.753 370.098 271.442Z" fill="black"/>
<path d="M131.916 314.117C139.766 314.117 146.13 312.849 146.13 311.284C146.13 309.719 139.766 308.451 131.916 308.451C124.066 308.451 117.703 309.719 117.703 311.284C117.703 312.849 124.066 314.117 131.916 314.117Z" fill="#6C63FF"/>
<path d="M131.677 312.326C132.592 312.326 133.333 311.321 133.333 310.081C133.333 308.841 132.592 307.836 131.677 307.836C130.762 307.836 130.02 308.841 130.02 310.081C130.02 311.321 130.762 312.326 131.677 312.326Z" fill="#3F3D56"/>
<path d="M131.677 309.58C132.592 309.58 133.333 308.575 133.333 307.335C133.333 306.095 132.592 305.09 131.677 305.09C130.762 305.09 130.02 306.095 130.02 307.335C130.02 308.575 130.762 309.58 131.677 309.58Z" fill="#3F3D56"/>
<path d="M131.677 306.834C132.592 306.834 133.333 305.829 133.333 304.589C133.333 303.349 132.592 302.344 131.677 302.344C130.762 302.344 130.02 303.349 130.02 304.589C130.02 305.829 130.762 306.834 131.677 306.834Z" fill="#3F3D56"/>
<path d="M131.677 304.092C132.592 304.092 133.333 303.087 133.333 301.848C133.333 300.608 132.592 299.603 131.677 299.603C130.762 299.603 130.02 300.608 130.02 301.848C130.02 303.087 130.762 304.092 131.677 304.092Z" fill="#3F3D56"/>
<path d="M131.677 301.346C132.592 301.346 133.333 300.341 133.333 299.102C133.333 297.862 132.592 296.857 131.677 296.857C130.762 296.857 130.02 297.862 130.02 299.102C130.02 300.341 130.762 301.346 131.677 301.346Z" fill="#3F3D56"/>
<path d="M131.677 298.6C132.592 298.6 133.333 297.595 133.333 296.356C133.333 295.116 132.592 294.111 131.677 294.111C130.762 294.111 130.02 295.116 130.02 296.356C130.02 297.595 130.762 298.6 131.677 298.6Z" fill="#3F3D56"/>
<path d="M131.677 295.859C132.592 295.859 133.333 294.854 133.333 293.614C133.333 292.374 132.592 291.369 131.677 291.369C130.762 291.369 130.02 292.374 130.02 293.614C130.02 294.854 130.762 295.859 131.677 295.859Z" fill="#3F3D56"/>
<path d="M137.875 274.833C138.099 274.533 138.304 274.219 138.489 273.891L134.145 273.15L138.847 273.19C139.299 272.172 139.546 271.07 139.572 269.95C139.598 268.83 139.403 267.717 138.998 266.678L132.69 270.069L138.506 265.658C137.958 264.686 137.224 263.841 136.349 263.176C135.473 262.51 134.475 262.038 133.417 261.789C132.358 261.539 131.261 261.518 130.194 261.726C129.127 261.935 128.113 262.368 127.214 262.999C126.315 263.63 125.551 264.446 124.969 265.396C124.387 266.346 123.999 267.41 123.83 268.521C123.661 269.633 123.714 270.769 123.986 271.858C124.258 272.947 124.743 273.967 125.411 274.855C125.06 275.32 124.757 275.823 124.507 276.354L130.154 279.405L124.133 277.313C123.709 278.606 123.602 279.989 123.823 281.336C124.043 282.682 124.583 283.951 125.394 285.028C124.475 286.24 123.903 287.695 123.745 289.228C123.586 290.761 123.847 292.309 124.497 293.696C125.147 295.082 126.16 296.251 127.421 297.069C128.682 297.887 130.139 298.321 131.626 298.321C133.114 298.321 134.571 297.887 135.832 297.069C137.092 296.251 138.106 295.082 138.756 293.696C139.406 292.309 139.666 290.761 139.508 289.228C139.349 287.695 138.777 286.24 137.858 285.028C138.956 283.579 139.553 281.79 139.553 279.948C139.553 278.105 138.956 276.317 137.858 274.868L137.875 274.833Z" fill="#6C63FF"/>
<path opacity="0.1" d="M123.716 279.911C123.711 281.752 124.303 283.542 125.398 284.993C124.479 286.205 123.908 287.66 123.749 289.193C123.59 290.726 123.851 292.274 124.501 293.661C125.151 295.047 126.164 296.216 127.425 297.034C128.686 297.852 130.143 298.286 131.63 298.286C133.118 298.286 134.575 297.852 135.836 297.034C137.097 296.216 138.11 295.047 138.76 293.661C139.41 292.274 139.671 290.726 139.512 289.193C139.353 287.66 138.782 286.205 137.862 284.993C138.935 283.594 123.716 278.991 123.716 279.911Z" fill="black"/>
<path d="M206.752 186.518C205.679 180.704 204.481 174.877 204.283 168.962C204.165 165.475 204.401 161.927 203.968 158.449C203.753 156.74 203.379 155.062 203.009 153.384L201.52 146.668C201.689 145.38 201.641 144.072 201.377 142.802C201.228 142.132 201.03 141.474 200.784 140.836C202.174 138.809 203.319 136.613 204.195 134.298C204.59 133.252 204.931 132.14 204.775 131.033C204.472 128.911 202.488 127.511 200.642 126.465C199.523 125.833 198.345 125.223 197.067 125.123C196.173 125.086 195.283 125.263 194.466 125.641C193.649 126.019 192.927 126.588 192.357 127.302C192.047 125.584 192.151 123.813 192.66 122.146C191.563 121.636 190.457 121.157 189.342 120.69C189.181 119.184 189.125 117.668 189.174 116.153C189.199 114.335 189.229 112.5 189.33 110.679C192.32 109.547 194.905 107.495 196.738 104.797C198.57 102.099 199.563 98.8842 199.582 95.5846C199.582 95.3972 199.582 95.2141 199.582 95.0311C200.397 93.5125 200.912 91.8411 201.099 90.1141C201.285 88.3871 201.138 86.639 200.667 84.9714C199.435 80.6127 196.213 77.0212 192.332 74.8027C188.451 72.5842 183.951 71.6471 179.498 71.4814C178.003 71.3908 176.504 71.4888 175.032 71.7735C173.457 72.1752 171.931 72.7601 170.482 73.5169C168.257 74.5804 166.016 75.7442 164.351 77.5791C161.462 80.774 160.814 85.4682 161.13 89.7833C161.55 95.4495 163.375 100.933 165.486 106.207C166.189 107.95 166.937 109.72 168.093 111.206C168.989 112.352 170.545 112.422 171.781 111.62C171.683 113.012 171.652 114.409 171.689 115.804C169.405 115.721 167.181 116.109 165.347 117.443C164.506 118.066 163.707 119.047 163.892 120.102C164.454 120.117 164.992 120.338 165.413 120.725C165.833 121.111 166.107 121.639 166.189 122.216C166.281 123.144 165.831 124.029 165.394 124.831C165.204 125.188 165.015 125.55 164.822 125.908C163.014 127.912 161.159 130.423 160.995 132.912C160.7 132.941 160.407 132.986 160.116 133.047C158.476 133.361 156.845 133.94 155.234 134.376L143.577 137.558L140.697 138.386L136.071 139.65C133.127 140.452 130.129 141.276 127.518 142.889C124.906 144.501 122.69 147.034 122.165 150.085C121.904 151.602 122.064 153.179 121.744 154.683C121.744 154.753 121.719 154.818 121.702 154.884C121.435 155.836 121.076 156.757 120.63 157.634C118.018 163.339 116.16 169.559 116.509 175.84C116.723 179.697 117.77 183.459 118.788 187.172C119.856 190.97 120.91 194.768 121.95 198.566C122.636 201.285 123.506 203.95 124.553 206.542C126.347 210.694 129.009 214.382 132.345 217.338C133.282 218.209 134.329 218.942 135.457 219.518C137.178 220.289 139.056 220.605 140.924 220.437C141.428 220.402 141.925 220.346 142.417 220.263C146.029 219.67 149.397 217.866 152.488 215.835C153.78 214.986 155.042 214.093 156.273 213.154C156.429 214.618 156.71 216.065 157.114 217.478C157.387 218.45 157.723 219.448 157.614 220.455C157.463 221.858 156.479 223.009 155.97 224.325C154.889 227.106 155.999 230.205 156.18 233.186C156.353 235.98 155.697 238.752 155.171 241.503C154.293 246.089 153.774 250.742 153.619 255.415C153.615 257.185 153.502 258.952 153.283 260.707C152.892 263.182 151.975 265.571 151.815 268.073C151.571 271.969 153.195 275.783 153.047 279.684C152.875 284.265 150.28 288.715 151.184 293.196C151.298 293.758 151.605 294.407 152.101 294.551L151.857 294.782C151.113 295.497 150.39 296.818 151.235 297.397C151.429 297.517 151.645 297.594 151.87 297.624C153.178 297.907 154.494 298.165 155.81 298.404C155.781 299.664 155.934 300.922 156.264 302.135C156.504 302.314 156.748 302.475 156.992 302.628C156.807 303.142 156.819 303.639 157.257 303.935C157.451 304.055 157.667 304.132 157.892 304.162C168.724 306.479 179.787 307.43 190.839 306.995C192.816 306.917 194.88 306.768 196.567 305.722C198.253 304.676 199.393 302.449 198.589 300.614C197.879 298.993 196.02 298.291 194.351 297.751L192.391 297.123C192.642 296.662 192.788 296.147 192.819 295.618C192.85 295.09 192.764 294.561 192.568 294.072C191.857 292.45 189.998 291.749 188.329 291.208L183.817 289.757C183.223 289.611 182.664 289.339 182.177 288.959C181.853 288.626 181.555 288.267 181.285 287.887C180.634 287.115 179.779 286.559 178.825 286.287C178.774 285.296 178.795 284.303 178.888 283.315L180.15 267.532C180.431 263.958 180.709 260.314 179.906 256.823C179.582 255.406 179.065 253.955 179.38 252.534C179.872 250.215 182.227 248.925 183.833 247.204C186.256 244.588 187.008 240.87 187.563 237.331C189.862 222.726 190.584 207.901 189.716 193.131C194.765 191.655 199.96 190.79 205.2 190.55C206.091 190.511 206.529 190.075 206.806 189.212C207.084 188.349 206.916 187.412 206.752 186.518ZM181.584 187.29C181.613 187.137 181.647 186.985 181.672 186.832L182.021 187.294L181.584 187.29Z" fill="url(#paint0_linear_25_5)"/>
<path d="M173.384 107.287C173.274 108.804 172.757 110.26 172.568 111.772C172.353 113.437 172.543 115.133 172.437 116.811C172.332 118.489 171.866 120.254 170.633 121.348C177.795 121.991 184.848 123.573 191.626 126.056C189.578 123.44 189.523 119.788 189.574 116.432C189.641 111.467 189.725 106.407 191.289 101.721C186.624 100.641 181.792 100.575 177.101 101.53C176.083 101.739 173.001 101.608 172.543 102.593C172.21 103.317 173.459 106.189 173.384 107.287Z" fill="#A1616A"/>
<path opacity="0.1" d="M173.384 107.287C173.274 108.804 172.757 110.26 172.568 111.772C172.353 113.437 172.543 115.133 172.437 116.811C172.332 118.489 171.866 120.254 170.633 121.348C177.795 121.991 184.848 123.573 191.626 126.056C189.578 123.44 189.523 119.788 189.574 116.432C189.641 111.467 189.725 106.407 191.289 101.721C186.624 100.641 181.792 100.575 177.101 101.53C176.083 101.739 173.001 101.608 172.543 102.593C172.21 103.317 173.459 106.189 173.384 107.287Z" fill="black"/>
<path d="M181.861 287.909C182.114 288.295 182.395 288.661 182.702 289.003C183.176 289.383 183.722 289.655 184.304 289.8L188.711 291.252C190.347 291.792 192.164 292.49 192.858 294.111C193.64 295.942 192.526 298.169 190.877 299.211C189.229 300.252 187.21 300.405 185.28 300.483C174.473 300.915 163.656 299.965 153.073 297.655C152.854 297.622 152.644 297.545 152.454 297.428C151.613 296.84 152.332 295.523 153.06 294.813C155.898 292.023 158.985 289.099 162.85 288.454C164.881 288.109 166.92 288.249 168.939 287.747C170.389 287.386 171.76 286.762 173.207 286.392C175.902 285.708 179.935 285.463 181.861 287.909Z" fill="#46455B"/>
<path opacity="0.1" d="M181.861 287.909C182.114 288.295 182.395 288.661 182.702 289.003C183.176 289.383 183.722 289.655 184.304 289.8L188.711 291.252C190.347 291.792 192.164 292.49 192.858 294.111C193.64 295.942 192.526 298.169 190.877 299.211C189.229 300.252 187.21 300.405 185.28 300.483C174.473 300.915 163.656 299.965 153.073 297.655C152.854 297.622 152.644 297.545 152.454 297.428C151.613 296.84 152.332 295.523 153.06 294.813C155.898 292.023 158.985 289.099 162.85 288.454C164.881 288.109 166.92 288.249 168.939 287.747C170.389 287.386 171.76 286.762 173.207 286.392C175.902 285.708 179.935 285.463 181.861 287.909Z" fill="black"/>
<path d="M159.734 189.325C157.559 195.273 157.425 201.816 159.355 207.854C157.888 207.688 157.253 209.746 157.29 211.28C157.343 213.416 157.655 215.536 158.22 217.591C158.489 218.567 158.817 219.561 158.712 220.564C158.56 221.967 157.602 223.118 157.101 224.43C156.05 227.206 157.131 230.301 157.311 233.278C157.48 236.072 156.836 238.839 156.319 241.585C155.462 246.167 154.956 250.812 154.805 255.476C154.802 257.244 154.691 259.01 154.473 260.763C154.094 263.239 153.211 265.623 153.043 268.121C152.803 272.008 154.389 275.822 154.246 279.719C154.078 284.291 151.538 288.737 152.425 293.231C152.551 293.863 152.892 294.608 153.518 294.617C159.86 294.699 165.785 292.873 172.059 293.828C172.698 278.782 173.32 263.666 176.18 248.895C178.703 235.745 182.98 222.743 182.58 209.336C182.349 201.669 180.591 194.15 179.523 186.558C172.819 185.015 165.804 185.996 159.734 189.325Z" fill="#BBBDC8"/>
<path opacity="0.1" d="M159.734 189.325C157.559 195.273 157.425 201.816 159.355 207.854C157.888 207.688 157.253 209.746 157.29 211.28C157.343 213.416 157.655 215.536 158.22 217.591C158.489 218.567 158.817 219.561 158.712 220.564C158.56 221.967 157.602 223.118 157.101 224.43C156.05 227.206 157.131 230.301 157.311 233.278C157.48 236.072 156.836 238.839 156.319 241.585C155.462 246.167 154.956 250.812 154.805 255.476C154.802 257.244 154.691 259.01 154.473 260.763C154.094 263.239 153.211 265.623 153.043 268.121C152.803 272.008 154.389 275.822 154.246 279.719C154.078 284.291 151.538 288.737 152.425 293.231C152.551 293.863 152.892 294.608 153.518 294.617C159.86 294.699 165.785 292.873 172.059 293.828C172.698 278.782 173.32 263.666 176.18 248.895C178.703 235.745 182.98 222.743 182.58 209.336C182.349 201.669 180.591 194.15 179.523 186.558C172.819 185.015 165.804 185.996 159.734 189.325Z" fill="black"/>
<path d="M187.748 294.447C188.001 294.833 188.282 295.199 188.589 295.541C189.063 295.921 189.609 296.193 190.192 296.338L194.599 297.79C196.234 298.33 198.051 299.028 198.745 300.649C199.527 302.48 198.413 304.707 196.764 305.749C195.116 306.79 193.097 306.943 191.167 307.021C180.36 307.453 169.543 306.503 158.96 304.193C158.741 304.16 158.531 304.083 158.342 303.966C157.501 303.377 158.22 302.061 158.947 301.351C161.786 298.561 164.872 295.637 168.737 294.991C170.768 294.647 172.807 294.787 174.826 294.285C176.277 293.924 177.648 293.3 179.094 292.93C181.79 292.246 185.822 292.001 187.748 294.447Z" fill="#46455B"/>
<path d="M161.92 189.757C160.297 191.936 159.818 194.813 160.036 197.541C160.255 200.27 161.142 202.889 162.013 205.474C160.856 206.577 161.096 208.477 161.248 210.099C161.798 216.122 159.78 222.133 160.074 228.174C160.196 230.715 160.73 233.221 160.856 235.762C160.995 238.539 160.655 241.315 160.335 244.074C158.293 261.737 157.17 279.501 156.971 297.288C156.971 298.927 156.946 300.592 157.391 302.161C160.449 304.493 164.288 304.807 167.988 303.935C171.689 303.064 175.066 301.12 178.384 299.202C180.201 298.227 181.925 297.074 183.531 295.759C184.022 295.398 184.385 294.881 184.565 294.285C184.918 292.542 182.58 291.753 181.239 290.624C179.288 288.981 179.317 285.939 179.519 283.341L180.738 267.58C181.016 264.01 181.285 260.371 180.503 256.884C180.183 255.472 179.691 254.02 179.986 252.6C180.465 250.289 182.77 248.999 184.338 247.278C186.71 244.662 187.442 240.953 187.988 237.423C190.565 220.674 191.113 203.657 189.62 186.767C186.529 187.878 182.866 187.273 179.607 187.534C176.348 187.796 173.11 188.924 169.809 189.016C167.059 189.081 163.611 187.508 161.92 189.757Z" fill="#BBBDC8"/>
<path d="M184.187 112.016C192.78 112.016 199.746 104.796 199.746 95.8896C199.746 86.983 192.78 79.7627 184.187 79.7627C175.594 79.7627 168.628 86.983 168.628 95.8896C168.628 104.796 175.594 112.016 184.187 112.016Z" fill="#A1616A"/>
<path d="M192.98 122.416C187.994 120.043 182.795 118.183 177.458 116.863C173.699 115.935 169.405 115.377 166.264 117.709C165.423 118.332 164.662 119.313 164.843 120.368C165.397 120.387 165.927 120.609 166.337 120.996C166.748 121.382 167.013 121.907 167.084 122.477C167.177 123.401 166.739 124.286 166.31 125.092L162.681 132.066C161.986 133.323 161.388 134.634 160.894 135.989C160.162 138.203 160.003 140.574 159.847 142.91L159.427 149.239C159.166 153.227 158.901 157.233 159.25 161.212C159.511 164.215 160.116 167.232 159.704 170.217C159.372 172.619 158.392 174.872 157.841 177.235C156.807 181.68 157.278 186.553 155.272 190.633C156.086 190.243 157.006 190.157 157.875 190.389C163.964 191.553 168.754 196.535 174.666 198.439C176.159 196.182 178.182 194.517 179.851 192.416C181.093 190.841 181.915 188.956 182.235 186.95C183.497 188.693 184.569 190.053 185.322 192.076C185.456 192.546 185.685 192.982 185.995 193.353C186.79 194.155 188.097 193.845 189.161 193.51C194.377 191.879 199.77 190.932 205.213 190.69C206.087 190.65 206.512 190.215 206.785 189.352C207.059 188.489 206.907 187.556 206.743 186.667C205.696 180.857 204.527 175.038 204.334 169.132C204.216 165.645 204.447 162.11 204.022 158.632C203.812 156.928 203.446 155.25 203.085 153.576L200.082 139.746C199.914 138.975 199.115 138.469 198.774 137.759C197.395 134.864 194.758 132.772 193.396 129.869C192.367 127.525 192.218 124.868 192.98 122.416Z" fill="#46455B"/>
<path d="M171.151 102.345C171.132 102.119 171.184 101.893 171.298 101.7C171.464 101.519 171.673 101.385 171.903 101.312C172.53 101.003 173.043 100.491 173.364 99.8533C173.685 99.2154 173.797 98.4865 173.682 97.7769L175.154 97.4588L175.2 92.1456C177.387 90.8903 180.368 91.8405 182.425 90.3629C183.581 89.5261 184.174 88.1052 184.881 86.8412C185.587 85.5772 186.638 84.3044 188.043 84.1998C187.56 85.4733 187.353 86.8412 187.436 88.2067C187.52 89.5723 187.892 90.9021 188.526 92.102C189.999 91.3296 191.229 90.1382 192.071 88.6674L192.803 93.026C192.818 93.2948 192.929 93.5481 193.114 93.7365C193.497 94.0285 194.014 93.6624 194.351 93.3006L196.256 91.3611C197.057 93.4461 197.607 95.626 197.891 97.851C201.02 94.7041 201.991 89.6481 200.789 85.3069C199.586 80.9657 196.436 77.3699 192.643 75.1514C188.85 72.9328 184.452 72.0001 180.099 71.8344C178.638 71.7458 177.172 71.8439 175.734 72.1265C174.192 72.5287 172.699 73.1137 171.285 73.8699C169.111 74.9291 166.916 76.0928 165.293 77.9234C162.467 81.1139 161.832 85.8038 162.143 90.1276C162.564 95.7938 164.338 101.264 166.403 106.529C167.088 108.273 167.82 110.038 168.951 111.524C170.654 113.76 174.839 111.903 174.305 107.484C173.934 104.328 171.151 105.544 171.151 102.345Z" fill="#3F3D56"/>
<path d="M177.038 188.685C171.79 199.799 163.731 209.229 153.72 215.97C150.697 217.996 147.412 219.801 143.876 220.394C143.392 220.476 142.909 220.533 142.417 220.568C140.593 220.724 138.761 220.402 137.089 219.631C135.982 219.053 134.957 218.32 134.044 217.452C130.772 214.483 128.171 210.802 126.429 206.673C125.404 204.081 124.554 201.419 123.884 198.705C122.853 194.91 121.824 191.114 120.798 187.316C119.793 183.602 118.779 179.845 118.569 175.984C118.229 169.712 120.045 163.501 122.598 157.804C123.033 156.926 123.384 156.007 123.645 155.058C123.645 154.993 123.674 154.927 123.687 154.857C123.99 153.354 123.834 151.78 124.107 150.263C124.62 147.212 126.79 144.684 129.339 143.076C131.887 141.468 134.805 140.644 137.703 139.842L142.215 138.582L145.015 137.802L156.407 134.625C157.984 134.189 159.578 133.609 161.18 133.317C162.967 132.968 162.955 133.151 163.094 134.965C163.35 138.251 163.266 141.481 163.935 144.737C164.57 147.844 165.688 150.839 166.529 153.89C168.653 161.591 169.006 169.698 170.68 177.522C171.062 179.305 171.592 181.205 172.976 182.317C174.561 183.624 177.231 183.947 177.652 185.995C177.807 186.906 177.416 187.839 177.038 188.685Z" fill="#6C63FF"/>
<path opacity="0.1" d="M143.876 220.376C143.392 220.459 142.909 220.516 142.417 220.551C140.594 220.713 138.762 220.396 137.089 219.631C135.982 219.053 134.957 218.32 134.044 217.452C130.772 214.483 128.171 210.802 126.429 206.673C125.404 204.081 124.554 201.419 123.884 198.705C122.853 194.91 121.824 191.114 120.798 187.316C119.793 183.603 118.779 179.845 118.569 175.984C118.229 169.712 120.045 163.501 122.598 157.804C123.033 156.926 123.384 156.007 123.645 155.058C123.645 154.993 123.674 154.927 123.687 154.857C130.55 156.108 138.783 169.716 143.031 187.547C146.159 200.88 146.294 213.158 143.876 220.376Z" fill="black"/>
<path opacity="0.1" d="M156.281 173.46L155.133 173.665C153.951 170.448 152.774 167.227 151.39 164.098C150.671 162.463 149.893 160.851 149.288 159.164C147.017 152.687 147.404 145.003 143.195 139.668C142.894 139.271 142.551 138.912 142.173 138.595L144.973 137.815C147.426 141.834 149.156 146.281 150.078 150.939C150.533 153.214 150.789 155.542 151.529 157.73C152.159 159.389 152.879 161.011 153.687 162.585C155.284 165.981 156.487 169.69 156.281 173.46Z" fill="black"/>
<path d="M167.459 124.351C170.482 121.667 174.607 120.193 178.522 120.865C180.827 121.253 182.967 122.329 185.032 123.48C189.056 125.694 193.022 128.244 195.923 131.883C197.663 134.179 199.108 136.699 200.221 139.38C200.767 140.552 201.19 141.78 201.483 143.046C202.509 147.971 199.99 152.866 197.563 157.233L192.896 165.628C190.751 169.485 188.59 173.369 185.797 176.755C184.511 178.316 183.098 179.758 181.689 181.201L175.503 187.53C175.392 187.666 175.246 187.767 175.083 187.822C174.948 187.829 174.813 187.806 174.687 187.754C174.561 187.702 174.448 187.623 174.355 187.521L172.311 185.834C174.194 184.486 175.943 182.949 177.534 181.245C180.209 178.377 182.408 175.077 184.595 171.791L191.399 161.565C193.388 158.571 195.465 155.276 195.242 151.65C195.137 149.906 194.506 148.267 193.846 146.668C192.677 143.823 191.407 141.023 190.036 138.269C188.497 135.178 186.815 132.127 184.599 129.516C182.383 126.906 179.582 124.722 176.357 123.776C175.395 123.45 174.375 123.349 173.371 123.48C171.159 123.859 169.586 125.829 168.186 127.66L163.922 133.326C162.951 134.612 162.059 136.102 162 133.662C161.899 130.179 165.297 126.592 167.459 124.351Z" fill="#6C63FF"/>
<path d="M168.779 162.577C169.62 165.933 170.86 169.742 173.977 171.015C176.184 171.917 178.77 171.185 180.68 169.707C182.589 168.23 183.943 166.146 185.188 164.041C186.241 162.149 187.402 160.324 188.665 158.575C191.159 155.332 194.552 152.761 196.235 148.986C196.731 147.862 197.076 146.659 197.639 145.578C198.241 144.581 198.922 143.638 199.674 142.758C201.61 140.272 203.159 137.486 204.262 134.503C204.649 133.461 204.981 132.345 204.83 131.242C204.531 129.12 202.593 127.725 200.789 126.683C199.691 126.051 198.543 125.437 197.294 125.341C195.469 125.193 193.674 126.213 192.551 127.708C191.47 129.254 190.866 131.103 190.818 133.012C190.692 135.335 191.129 137.75 190.398 139.947C190.011 140.971 189.476 141.93 188.812 142.788C186.45 146.064 183.527 148.861 180.188 151.039C180.096 149.391 179.751 147.768 179.166 146.232C178.846 145.386 172.58 146.232 171.765 146.371C170.15 146.615 167.021 146.807 166.004 148.402C164.986 149.998 166.247 152.678 166.66 154.286L168.779 162.577Z" fill="#A1616A"/>
<path d="M168.628 125.951C167.697 126.748 166.83 127.623 166.037 128.566C164.17 130.898 163.258 133.932 163.022 136.952C162.787 139.973 163.186 143.006 163.686 145.992C164.141 148.671 164.677 151.331 165.297 153.973C165.469 151.981 167.025 150.333 168.829 149.614C170.633 148.895 172.614 148.973 174.536 149.265C177.009 149.645 179.422 150.368 181.71 151.414L182.597 138.526C182.784 136.787 182.774 135.032 182.568 133.295C182.288 131.684 181.681 130.153 180.786 128.804C179.891 127.455 178.73 126.319 177.378 125.472C174.006 123.345 171.655 123.209 168.628 125.951Z" fill="#46455B"/>
<path d="M327.491 188.667C327.092 185.17 326.11 181.77 324.589 178.621C323.66 176.703 322.529 174.868 321.944 172.815C321.469 171.146 321.376 169.389 320.998 167.694C320.619 165.998 319.951 164.377 319.413 162.72C315.607 150.952 318.466 138.077 317.238 125.742C316.78 121.191 315.434 116.201 311.629 113.83C309.366 112.422 306.65 112.204 303.988 112.086L302.773 112.03L300.821 111.929C297.996 111.786 295.161 111.677 292.411 112.291C289.047 113.054 285.06 115.508 284.001 119.069C283.42 118.759 282.836 118.485 282.298 118.228C280.132 117.232 277.861 116.5 275.532 116.048C277.53 115.527 279.459 114.754 281.276 113.747C285.481 111.21 286.457 103.801 287.314 98.8448C288.172 93.8891 287.39 88.7677 285.965 83.9514C285.494 82.2424 284.852 80.5888 284.051 79.0175C282.944 76.9477 281.438 75.1368 279.625 73.6978C277.813 72.2588 275.733 71.2226 273.517 70.6541C271.301 70.0855 268.995 69.9967 266.744 70.3933C264.493 70.7899 262.346 71.6633 260.435 72.959C256.512 75.6221 252.866 79.4969 249.872 83.241C249.451 83.7553 247.693 85.5772 248.278 86.3443C248.606 86.7802 249.687 86.4315 250.822 85.9084C249.948 87.9537 249.499 90.1661 249.502 92.4028C249.504 95.2121 250.212 97.9723 251.556 100.412C252.901 102.851 254.834 104.886 257.168 106.316L257.588 110.325V110.356C257.634 111.694 257.655 113.032 257.672 114.366C257.672 115.303 257.672 116.262 257.647 117.221C255.902 119.267 253.765 120.915 251.373 122.059C253.349 122.399 255.233 121.919 257.067 121.1C256.769 122.171 256.268 123.169 255.595 124.038C256.099 123.855 256.604 123.689 257.109 123.515C256.845 123.954 256.61 124.411 256.406 124.883C256.095 125.63 255.868 126.411 255.729 127.211C254.659 128.832 253.731 130.551 252.958 132.345C252.605 133.16 252.29 133.988 252.004 134.83V134.886C251.723 135.723 251.475 136.572 251.259 137.432C251.158 137.844 251.066 138.258 250.982 138.674C250.982 138.704 250.982 138.735 250.982 138.765C250.814 139.607 250.675 140.452 250.561 141.307C250.561 141.363 250.561 141.42 250.561 141.481C250.515 141.877 250.473 142.278 250.443 142.679C250.443 142.679 250.443 142.719 250.443 142.74C250.41 143.176 250.385 143.59 250.372 144.018C250.372 144.074 250.372 144.127 250.372 144.183C250.372 144.545 250.372 144.911 250.372 145.273V145.521C250.372 146.341 250.422 147.164 250.498 147.988C250.498 148.089 250.498 148.193 250.528 148.293C250.561 148.629 250.599 148.965 250.645 149.305C250.645 149.383 250.645 149.461 250.675 149.536C250.729 149.941 250.793 150.342 250.864 150.743C250.864 150.83 250.902 150.922 250.919 151.009C250.978 151.331 251.041 151.65 251.112 151.972L251.188 152.303C251.28 152.704 251.377 153.101 251.486 153.502C251.549 153.729 251.613 153.938 251.68 154.178C251.881 155.004 252.021 155.844 252.1 156.692L249.8 156.771C244.877 156.916 239.959 157.147 235.044 157.464C234.43 155.01 232.336 153.593 229.699 153.258C229.281 153.206 228.859 153.179 228.438 153.179C228.893 152.782 229.297 152.327 229.64 151.824C230.098 151.172 230.424 150.43 230.599 149.645C229.922 150.044 229.329 150.583 228.858 151.227C228.703 151.445 228.564 151.663 228.438 151.863V150.556C228.438 150.528 228.434 150.5 228.424 150.475C228.414 150.449 228.399 150.426 228.38 150.406C228.361 150.387 228.339 150.371 228.314 150.361C228.289 150.351 228.263 150.346 228.236 150.346H227.815C227.789 150.346 227.762 150.351 227.738 150.361C227.713 150.371 227.69 150.387 227.671 150.406C227.653 150.426 227.638 150.449 227.628 150.475C227.618 150.5 227.613 150.528 227.614 150.556V153.219H227.529H227.386C227.109 153.245 226.84 153.28 226.575 153.332C223.711 153.885 221.613 155.79 221.613 158.998C221.614 160.008 221.826 161.006 222.236 161.923C222.645 162.839 223.242 163.653 223.985 164.307C224.108 165.306 224.326 166.29 224.636 167.245C224.926 168.19 225.305 169.219 226.154 169.69C226.673 169.934 227.242 170.042 227.811 170.004C232.487 170.004 236.911 167.768 241.566 167.388C244.443 167.149 247.332 167.611 250.216 167.519C250.637 167.519 251.057 167.476 251.478 167.441C247.534 187.687 242.761 208.19 245.254 228.64C245.418 230 245.675 231.473 246.655 232.397C247.954 233.626 249.956 233.426 251.701 233.269C256.49 232.816 261.318 233.216 265.977 234.45C266.633 234.638 267.321 234.663 267.987 234.524C268.13 234.491 268.27 234.449 268.408 234.398L268.526 234.35C268.614 234.315 268.698 234.28 268.778 234.241L268.9 234.176L269.106 234.045C269.14 234.019 269.178 233.997 269.207 233.971C269.28 233.919 269.349 233.86 269.413 233.796L269.472 233.744C269.551 233.664 269.625 233.58 269.695 233.491L269.745 233.413C269.794 233.347 269.839 233.279 269.88 233.208C269.901 233.173 269.922 233.138 269.939 233.103C269.955 233.069 270.006 232.973 270.035 232.907C270.065 232.842 270.069 232.829 270.082 232.79C270.094 232.75 270.136 232.646 270.162 232.572C270.187 232.498 270.162 232.502 270.195 232.463C270.229 232.423 270.254 232.245 270.275 232.136V232.066C270.275 231.975 270.309 231.879 270.321 231.787C270.334 231.696 270.321 231.691 270.321 231.643C270.321 231.595 270.321 231.499 270.321 231.43V231.273C270.321 231.203 270.321 231.133 270.321 231.064V230.676C270.321 230.632 270.321 230.584 270.321 230.536C270.321 230.148 270.279 229.756 270.241 229.381C270.542 229.472 270.848 229.54 271.158 229.586C271.447 229.634 271.74 229.656 272.033 229.651H272.075C272.214 229.651 272.352 229.651 272.495 229.617C272.617 229.597 272.738 229.571 272.857 229.538H272.912C273.022 229.504 273.129 229.461 273.231 229.407L273.282 229.377C273.369 229.326 273.452 229.268 273.53 229.202L273.568 229.172C273.647 229.096 273.717 229.011 273.778 228.919L273.816 228.854C273.878 228.749 273.928 228.636 273.963 228.518C274.203 227.677 273.656 226.727 274.531 225.955C275.372 228.749 276.213 231.547 276.352 234.437C276.398 235.492 276.352 236.616 276.949 237.488C277.337 237.964 277.759 238.41 278.21 238.822C279.497 240.265 279.526 242.44 279.438 244.392C279.4 245.181 279.358 245.97 279.304 246.759C278.609 257.287 276.544 267.669 273.164 277.622C272.835 278.681 272.404 279.704 271.877 280.673C271.024 282.046 269.957 283.263 268.719 284.274C266.966 285.817 265.088 287.201 263.105 288.41C262.093 288.965 261.136 289.623 260.25 290.376C260.216 290.275 260.178 290.18 260.153 290.075C260.107 289.874 260.044 289.639 259.855 289.565C259.711 289.531 259.56 289.556 259.434 289.635C257.462 290.533 255.49 291.43 253.593 292.481C252.636 292.933 251.792 293.609 251.129 294.455C250.523 295.327 250.343 296.635 250.969 297.506C251.52 298.269 252.508 298.522 253.421 298.692C254.59 298.906 255.763 299.058 256.936 299.171C256.333 299.537 255.806 300.023 255.385 300.601C254.779 301.473 254.598 302.78 255.225 303.652C255.776 304.415 256.764 304.668 257.676 304.838C265.132 306.202 272.777 305.273 280.346 305.042C282.807 304.96 285.321 304.942 287.651 304.114C288.11 303.973 288.539 303.741 288.912 303.43C289.972 302.462 289.867 300.762 289.682 299.32L288.912 293.427C288.799 293.427 288.69 293.466 288.58 293.492C289.225 287.956 290.381 282.498 292.033 277.191C294.598 268.931 298.416 260.794 298.366 252.151C298.366 251.941 298.366 251.715 298.366 251.523C298.294 248.816 297.827 246.14 297.525 243.446C297.049 238.94 297.104 234.394 297.134 229.865C297.097 228.089 297.216 226.314 297.491 224.561C297.491 224.5 297.516 224.443 297.529 224.382L304.514 224.19C305.288 224.231 306.06 224.081 306.768 223.754C307.102 223.602 307.371 223.327 307.522 222.981C307.672 222.636 307.694 222.245 307.583 221.884C310.561 223.283 314.543 221.379 315.422 218.136C315.483 217.908 315.532 217.676 315.569 217.443C315.567 217.426 315.567 217.408 315.569 217.391C315.598 217.173 315.619 216.955 315.628 216.741C315.628 216.706 315.628 216.667 315.628 216.632C315.671 215.135 315.448 213.643 314.968 212.23C313.538 208.033 311.267 204.21 309.131 200.344C308.029 198.343 306.961 196.317 305.922 194.281L306.835 195.497C307.155 195.993 307.576 196.411 308.067 196.722C309.77 197.633 311.553 195.798 313.286 194.952C315.586 193.828 318.277 194.49 320.817 194.678C323.357 194.865 326.418 194.185 327.327 191.744C327.621 190.748 327.677 189.692 327.491 188.667ZM283.702 123.162C283.702 124.094 283.761 125.04 283.833 125.99C282.979 124.544 281.993 123.187 280.889 121.937L283.702 123.162Z" fill="url(#paint1_linear_25_5)"/>
<path d="M228.762 152.011C229.227 151.372 229.812 150.837 230.481 150.438C230.311 151.223 229.989 151.964 229.535 152.617C228.804 153.65 228.034 154.361 227.82 154.191C227.605 154.021 228.021 153.044 228.762 152.011Z" fill="#99D55C"/>
<path opacity="0.1" d="M228.854 152.09C229.194 151.615 229.623 151.216 230.116 150.917C229.988 151.498 229.749 152.046 229.413 152.53C228.867 153.297 228.295 153.838 228.152 153.702C228.009 153.567 228.307 152.857 228.854 152.09Z" fill="black"/>
<path d="M227.74 151.144H228.16C228.187 151.144 228.213 151.149 228.237 151.16C228.262 151.17 228.284 151.186 228.303 151.205C228.322 151.225 228.337 151.248 228.347 151.273C228.357 151.298 228.362 151.326 228.362 151.353V156.291H227.563V151.353C227.563 151.302 227.58 151.252 227.613 151.214C227.646 151.175 227.691 151.15 227.74 151.144Z" fill="#F6987E"/>
<path d="M235.069 159.778C235.069 161.628 234.36 163.402 233.099 164.71C231.837 166.017 230.126 166.752 228.341 166.752C226.557 166.752 224.845 166.017 223.583 164.71C222.322 163.402 221.613 161.628 221.613 159.778C221.613 156.583 223.686 154.692 226.516 154.138C227.118 154.023 227.729 153.966 228.341 153.968C228.763 153.968 229.184 153.994 229.603 154.047C232.714 154.448 235.069 156.374 235.069 159.778Z" fill="#FC4A4A"/>
<path opacity="0.1" d="M229.603 154.047C229.481 154.286 228.82 154.483 228.021 154.483C227.5 154.522 226.978 154.409 226.516 154.156C227.118 154.041 227.729 153.984 228.341 153.986C228.762 153.979 229.184 154 229.603 154.047Z" fill="black"/>
<path opacity="0.1" d="M229.464 166.586C227.679 166.586 225.968 165.852 224.706 164.544C223.444 163.236 222.736 161.462 222.736 159.613C222.736 156.474 224.733 154.596 227.483 154.008C227.159 154.033 226.836 154.077 226.516 154.138C223.686 154.692 221.613 156.583 221.613 159.778C221.613 161.628 222.322 163.402 223.583 164.71C224.845 166.017 226.557 166.752 228.341 166.752C228.849 166.753 229.356 166.693 229.851 166.573C229.72 166.582 229.603 166.586 229.464 166.586Z" fill="black"/>
<path d="M259.123 295.667C260.052 296.539 261.474 296.517 262.735 296.421L268.484 295.985C273.051 295.637 277.773 295.244 281.801 292.991C282.228 292.789 282.606 292.491 282.907 292.119C283.228 291.549 283.395 290.9 283.391 290.241C283.935 283.785 285.174 277.412 287.083 271.241C289.606 263.025 293.391 254.927 293.34 246.327C293.34 246.118 293.34 245.892 293.34 245.704C293.269 243.011 292.811 240.347 292.529 237.667C292.062 233.182 292.108 228.662 292.142 224.155C292.106 222.388 292.224 220.622 292.495 218.877C292.76 217.46 293.757 216.039 293.147 214.793C291.965 212.374 287.68 211.485 285.376 211.397C282.272 211.284 279.22 212.125 276.221 212.962C275.309 213.219 274.354 213.494 273.664 214.161C272.739 215.059 272.474 216.467 272.441 217.778C272.281 223.597 275.515 229.011 275.771 234.821C275.818 235.867 275.771 237 276.36 237.872C276.748 238.346 277.17 238.791 277.622 239.201C278.883 240.635 278.921 242.797 278.833 244.741C278.795 245.525 278.753 246.31 278.702 247.095C278.015 257.565 275.974 267.893 272.634 277.801C272.312 278.859 271.89 279.881 271.373 280.852C270.529 282.215 269.475 283.426 268.252 284.435C266.52 285.968 264.665 287.345 262.706 288.549C261.398 289.351 260.002 290.118 259.106 291.391C258.21 292.664 258.013 294.595 259.123 295.667Z" fill="#FDA8A8"/>
<path opacity="0.1" d="M259.123 295.667C260.052 296.539 261.474 296.517 262.735 296.421L268.484 295.985C273.051 295.637 277.773 295.244 281.801 292.991C282.228 292.789 282.606 292.491 282.907 292.119C283.228 291.549 283.395 290.9 283.391 290.241C283.935 283.785 285.174 277.412 287.083 271.241C289.606 263.025 293.391 254.927 293.34 246.327C293.34 246.118 293.34 245.892 293.34 245.704C293.269 243.011 292.811 240.347 292.529 237.667C292.062 233.182 292.108 228.662 292.142 224.155C292.106 222.388 292.224 220.622 292.495 218.877C292.76 217.46 293.757 216.039 293.147 214.793C291.965 212.374 287.68 211.485 285.376 211.397C282.272 211.284 279.22 212.125 276.221 212.962C275.309 213.219 274.354 213.494 273.664 214.161C272.739 215.059 272.474 216.467 272.441 217.778C272.281 223.597 275.515 229.011 275.771 234.821C275.818 235.867 275.771 237 276.36 237.872C276.748 238.346 277.17 238.791 277.622 239.201C278.883 240.635 278.921 242.797 278.833 244.741C278.795 245.525 278.753 246.31 278.702 247.095C278.015 257.565 275.974 267.893 272.634 277.801C272.312 278.859 271.89 279.881 271.373 280.852C270.529 282.215 269.475 283.426 268.252 284.435C266.52 285.968 264.665 287.345 262.706 288.549C261.398 289.351 260.002 290.118 259.106 291.391C258.21 292.664 258.013 294.595 259.123 295.667Z" fill="black"/>
<path d="M259.123 295.667C260.052 296.539 261.474 296.517 262.735 296.421L268.484 295.985C273.051 295.637 277.773 295.244 281.801 292.991C282.228 292.789 282.606 292.491 282.907 292.119C283.228 291.549 283.395 290.9 283.391 290.241C283.935 283.785 285.174 277.412 287.083 271.241C289.606 263.025 293.391 254.927 293.34 246.327C288.48 246.884 283.592 247.135 278.702 247.077C278.015 257.548 275.974 267.876 272.634 277.784C272.312 278.841 271.89 279.863 271.373 280.835C270.529 282.198 269.475 283.408 268.252 284.417C266.52 285.951 264.665 287.327 262.706 288.532C261.398 289.334 260.002 290.101 259.106 291.374C258.21 292.647 258.013 294.595 259.123 295.667Z" fill="#EEEFF3"/>
<path opacity="0.1" d="M259.123 295.667C260.052 296.539 261.474 296.517 262.735 296.421L268.484 295.985C273.051 295.637 277.773 295.244 281.801 292.991C282.228 292.789 282.606 292.491 282.907 292.119C283.228 291.549 283.395 290.9 283.391 290.241C283.935 283.785 285.174 277.412 287.083 271.241C289.606 263.025 293.391 254.927 293.34 246.327C288.48 246.884 283.592 247.135 278.702 247.077C278.015 257.548 275.974 267.876 272.634 277.784C272.312 278.841 271.89 279.863 271.373 280.835C270.529 282.198 269.475 283.408 268.252 284.417C266.52 285.951 264.665 287.327 262.706 288.532C261.398 289.334 260.002 290.101 259.106 291.374C258.21 292.647 258.013 294.595 259.123 295.667Z" fill="black"/>
<path d="M271.823 293.828C273.204 293.315 274.531 292.657 275.784 291.866L282.121 288.161C282.694 287.777 283.332 287.509 284.001 287.373L284.758 293.235C284.947 294.673 285.048 296.364 284.001 297.328C283.627 297.637 283.198 297.868 282.739 298.008C280.439 298.831 277.958 298.849 275.523 298.927C268.046 299.176 260.494 300.082 253.126 298.722C252.226 298.557 251.251 298.287 250.708 297.546C250.09 296.674 250.267 295.41 250.864 294.525C251.518 293.684 252.352 293.011 253.299 292.559C255.174 291.513 257.121 290.624 259.068 289.731C259.188 289.657 259.331 289.632 259.468 289.661C259.657 289.726 259.716 289.966 259.766 290.166C260.107 291.596 261.217 292.725 262.483 293.401C262.5 293.401 269.022 294.752 271.823 293.828Z" fill="#BBBDC8"/>
<path opacity="0.1" d="M271.823 293.828C273.204 293.315 274.531 292.657 275.784 291.866L282.121 288.161C282.694 287.777 283.332 287.509 284.001 287.373L284.758 293.235C284.947 294.673 285.048 296.364 284.001 297.328C283.627 297.637 283.198 297.868 282.739 298.008C280.439 298.831 277.958 298.849 275.523 298.927C268.046 299.176 260.494 300.082 253.126 298.722C252.226 298.557 251.251 298.287 250.708 297.546C250.09 296.674 250.267 295.41 250.864 294.525C251.518 293.684 252.352 293.011 253.299 292.559C255.174 291.513 257.121 290.624 259.068 289.731C259.188 289.657 259.331 289.632 259.468 289.661C259.657 289.726 259.716 289.966 259.766 290.166C260.107 291.596 261.217 292.725 262.483 293.401C262.5 293.401 269.022 294.752 271.823 293.828Z" fill="black"/>
<path d="M263.328 301.769C264.257 302.641 265.679 302.619 266.94 302.523L272.689 302.087C277.256 301.739 281.978 301.346 286.007 299.093C286.433 298.891 286.811 298.593 287.113 298.221C287.433 297.651 287.6 297.002 287.596 296.343C288.14 289.887 289.379 283.514 291.288 277.343C293.811 269.127 297.596 261.029 297.546 252.43C297.546 252.22 297.546 251.994 297.546 251.806C297.474 249.113 297.016 246.45 296.734 243.769C296.267 239.284 296.313 234.764 296.347 230.257C296.311 228.49 296.429 226.724 296.7 224.979C296.965 223.562 297.962 222.141 297.352 220.895C296.17 218.476 291.885 217.587 289.581 217.5C286.478 217.386 283.425 218.227 280.426 219.064C279.514 219.321 278.559 219.596 277.87 220.263C276.944 221.161 276.679 222.569 276.646 223.881C276.486 229.699 279.72 235.113 279.976 240.923C280.023 241.969 279.976 243.102 280.565 243.974C280.953 244.449 281.375 244.893 281.827 245.303C283.088 246.737 283.126 248.899 283.038 250.843C283 251.628 282.958 252.412 282.907 253.197C282.22 263.668 280.179 273.995 276.839 283.903C276.517 284.961 276.095 285.983 275.578 286.954C274.734 288.318 273.68 289.528 272.457 290.537C270.725 292.07 268.87 293.447 266.911 294.652C265.603 295.453 264.207 296.221 263.311 297.493C262.416 298.766 262.218 300.697 263.328 301.769Z" fill="#FDA8A8"/>
<path d="M263.328 301.769C264.257 302.641 265.679 302.619 266.94 302.523L272.689 302.087C277.256 301.739 281.978 301.346 286.007 299.093C286.433 298.891 286.811 298.593 287.113 298.221C287.433 297.651 287.6 297.002 287.596 296.343C288.14 289.887 289.379 283.514 291.288 277.343C293.811 269.127 297.596 261.029 297.546 252.43C292.685 252.987 287.797 253.237 282.907 253.179C282.22 263.65 280.179 273.978 276.839 283.886C276.517 284.943 276.095 285.965 275.578 286.937C274.734 288.3 273.68 289.51 272.457 290.519C270.725 292.053 268.87 293.429 266.911 294.634C265.603 295.436 264.207 296.203 263.311 297.476C262.416 298.749 262.218 300.697 263.328 301.769Z" fill="#EEEFF3"/>
<path d="M276.028 299.93C277.409 299.417 278.736 298.76 279.989 297.968L286.326 294.264C286.899 293.879 287.537 293.611 288.206 293.475L288.963 299.337C289.152 300.775 289.253 302.466 288.206 303.43C287.832 303.739 287.404 303.97 286.944 304.11C284.644 304.933 282.163 304.951 279.728 305.029C272.252 305.278 264.699 306.184 257.332 304.824C256.432 304.659 255.456 304.389 254.914 303.648C254.295 302.776 254.472 301.512 255.069 300.627C255.724 299.786 256.557 299.113 257.504 298.661C259.379 297.615 261.326 296.726 263.273 295.833C263.394 295.759 263.536 295.734 263.673 295.763C263.862 295.828 263.921 296.068 263.971 296.268C264.312 297.698 265.422 298.827 266.688 299.503C266.705 299.503 273.227 300.854 276.028 299.93Z" fill="#BBBDC8"/>
<path d="M255.174 124.966C257.222 122.351 257.277 118.698 257.226 115.342C257.226 114.035 257.189 112.683 257.142 111.354V111.324C257.086 108.88 256.837 106.446 256.398 104.045C256.177 102.892 255.882 101.757 255.515 100.645C255.792 100.58 256.07 100.519 256.356 100.466C260.764 99.564 265.299 99.564 269.707 100.466C270.469 100.623 272.395 100.588 273.492 100.976C273.805 101.054 274.077 101.252 274.253 101.53C274.468 101.996 274.026 103.347 273.707 104.546C273.531 105.086 273.432 105.65 273.412 106.22C273.455 106.755 273.533 107.287 273.648 107.811C273.845 108.774 274.106 109.728 274.228 110.705C274.442 112.37 274.253 114.065 274.358 115.743C274.463 117.421 274.93 119.187 276.162 120.281C269.003 120.917 261.951 122.491 255.174 124.966Z" fill="#FDA8A8"/>
<path opacity="0.1" d="M275.325 107.619C274.766 107.667 274.211 107.723 273.643 107.789C268.042 108.408 262.514 109.606 257.142 111.363V111.332L256.398 104.053C256.398 103.617 256.398 103.182 256.398 102.724C256.398 101.979 256.377 101.225 256.36 100.475C260.768 99.5727 265.304 99.5727 269.712 100.475C270.473 100.632 272.399 100.597 273.496 100.985C273.496 101.695 273.496 102.406 273.521 103.116C273.549 103.6 273.612 104.081 273.711 104.555C273.912 105.731 274.479 106.807 275.325 107.619Z" fill="black"/>
<path d="M264.716 109.619C273.309 109.619 280.275 102.399 280.275 93.4924C280.275 84.5857 273.309 77.3655 264.716 77.3655C256.123 77.3655 249.157 84.5857 249.157 93.4924C249.157 102.399 256.123 109.619 264.716 109.619Z" fill="#FDA8A8"/>
<path d="M251.049 154.299C248.286 144.166 250.809 133.282 257.407 125.28C258.875 123.497 260.351 121.666 262.277 120.599C264.569 119.335 267.281 119.291 269.876 119.265C272.167 119.265 274.531 119.265 276.637 120.211C279.484 121.47 281.448 124.208 283.105 126.923C284.871 129.817 286.469 132.951 286.738 136.368C286.881 138.395 286.536 140.452 286.827 142.47C287.197 145.029 288.572 147.321 289.135 149.841C289.442 151.201 289.505 152.608 289.703 153.994C290.001 155.89 290.434 157.761 290.998 159.591C295.176 173.97 300.898 187.818 308.054 200.876C310.157 204.724 312.407 208.529 313.82 212.701C314.459 214.588 314.921 216.623 314.4 218.567C313.529 221.793 309.598 223.689 306.658 222.298C306.767 222.657 306.745 223.044 306.596 223.386C306.447 223.729 306.182 224.002 305.851 224.155C305.152 224.482 304.388 224.632 303.622 224.591L277.651 225.306C276.969 225.324 276.29 225.419 275.628 225.589C272.575 226.4 273.723 227.768 273.395 228.91C272.996 230.305 271.066 230.192 269.72 229.782C269.926 231.818 269.972 234.306 267.437 234.899C266.779 235.037 266.099 235.013 265.452 234.829C260.85 233.601 256.079 233.203 251.348 233.653C249.615 233.818 247.634 234.019 246.352 232.781C245.385 231.861 245.132 230.397 244.968 229.045C242.382 207.688 247.702 186.3 251.697 165.2C252.235 162.354 252.041 157.743 251.234 154.962L251.049 154.299Z" fill="#F75842"/>
<path d="M285.531 139.58C286.141 141.402 286.902 143.194 287.108 145.112C287.272 146.646 287.075 148.197 287.163 149.736C287.324 151.444 287.664 153.129 288.177 154.762C288.986 157.936 289.985 161.056 291.166 164.102C291.73 165.475 292.382 166.987 291.928 168.404C291.473 169.821 290.065 170.697 289.661 172.104C289.24 173.591 290.081 175.156 291.154 176.241C292.226 177.326 293.568 178.098 294.56 179.253C295.641 180.512 296.242 182.121 297.003 183.611C298.084 185.583 299.323 187.456 300.708 189.212L305.792 196.051C306.109 196.544 306.525 196.96 307.012 197.271C308.694 198.178 310.456 196.352 312.167 195.528C314.438 194.408 317.096 195.066 319.606 195.253C322.117 195.441 325.14 194.765 326.036 192.333C326.332 191.346 326.394 190.299 326.217 189.282C325.823 185.804 324.853 182.423 323.349 179.288C322.432 177.378 321.313 175.552 320.737 173.508C320.266 171.847 320.174 170.1 319.799 168.413C319.425 166.726 318.765 165.113 318.235 163.466C314.476 151.758 317.302 138.948 316.086 126.675C315.636 122.146 314.303 117.182 310.544 114.824C308.311 113.424 305.628 113.206 302.975 113.08L301.776 113.023L299.846 112.923C297.054 112.779 294.253 112.67 291.532 113.285C287.706 114.157 283.101 117.238 282.95 121.667C282.785 127.749 283.659 133.814 285.531 139.58Z" fill="#6C63FF"/>
<path opacity="0.1" d="M299.867 112.906C300.383 115.872 300.641 118.88 300.636 121.893C300.712 130.497 301.608 139.066 302.508 147.609L303.101 153.275C303.21 154.321 303.34 155.42 303.942 156.261C304.543 157.102 305.805 157.542 306.599 156.893C307.087 154.892 306.99 152.792 306.894 150.73C306.684 146.345 306.475 141.959 306.267 137.571C306.065 133.3 305.847 129.024 305.346 124.779C304.954 121.49 304.375 118.229 303.614 115.011C303.469 114.344 303.268 113.692 303.012 113.063L301.814 113.006L299.867 112.906Z" fill="black"/>
<path d="M272.39 116.593C269.812 116.21 267.113 116.013 264.665 116.942C262.327 117.835 260.46 119.67 258.778 121.601C257.631 122.845 256.683 124.271 255.969 125.825C254.535 129.242 255.094 133.182 255.969 136.8C258.353 146.763 263.088 156.374 270.687 162.951C273 164.899 275.463 166.649 278.05 168.182C281.415 170.226 284.888 172.105 288.61 173.286C289.648 173.617 290.754 173.896 291.818 173.661C292.882 173.425 293.887 172.532 293.921 171.403C287.823 167.851 282.356 163.261 276.928 158.693C275.439 157.503 274.046 156.191 272.76 154.77C270.834 152.526 269.476 149.815 267.609 147.518C265.927 145.456 263.824 143.717 262.563 141.359C261.771 139.748 261.241 138.014 260.994 136.224C260.372 132.576 260.254 128.701 261.65 125.289C263.046 121.876 266.246 119.073 269.821 119.134C271.654 119.165 273.399 119.919 275.09 120.655L285.729 125.31C285.599 125.249 286.339 123.336 286.305 123.07C286.204 122.238 286.061 122.224 285.464 121.592C284.446 120.538 282.865 119.797 281.574 119.182C278.648 117.868 275.555 116.996 272.39 116.593Z" fill="#6C63FF"/>
<path d="M251.213 90.4414C254.248 89.7424 257.057 88.2408 259.367 86.0828L257.142 98.1823C259.358 97.128 261.507 95.9284 263.576 94.5908C263.875 100.126 263.442 105.788 261.474 110.94C259.506 116.092 255.877 120.703 251.007 122.992C255.33 123.741 259.211 120.525 263.059 118.35C265.742 116.837 270.326 118.393 273.261 117.478C275.75 116.72 278.307 116.057 280.553 114.701C284.724 112.178 285.67 104.807 286.515 99.8822C287.361 94.9569 286.591 89.8573 285.187 85.0628C284.719 83.3649 284.087 81.7205 283.298 80.155C282.215 78.0992 280.732 76.2987 278.944 74.8672C277.155 73.4356 275.099 72.4042 272.906 71.8381C270.713 71.272 268.431 71.1836 266.203 71.5783C263.975 71.973 261.851 72.8424 259.964 74.1314C256.087 76.7771 252.491 80.6694 249.531 84.3611C249.11 84.8711 247.374 86.6843 247.95 87.447C248.652 88.371 252.773 85.7384 253.471 85.381C253.269 86.1699 252.016 90.2365 251.213 90.4414Z" fill="#FFD566"/>
<g opacity="0.1">
<path d="M268.711 231.412C268.053 231.55 267.373 231.527 266.726 231.342C262.125 230.114 257.353 229.716 252.622 230.166C250.889 230.331 248.909 230.532 247.626 229.294C246.659 228.374 246.406 226.91 246.242 225.559C243.656 204.201 248.976 182.814 252.971 161.713C253.509 158.867 253.316 154.256 252.508 151.475L252.319 150.8C250.762 145.037 250.854 138.93 252.584 133.221C249.715 139.846 249.172 147.303 251.049 154.299L251.238 154.975C252.046 157.756 252.239 162.385 251.701 165.213C247.718 186.314 242.399 207.714 244.972 229.059C245.136 230.41 245.393 231.874 246.356 232.794C247.618 234.019 249.619 233.818 251.352 233.666C256.083 233.216 260.855 233.614 265.456 234.842C266.103 235.026 266.783 235.05 267.441 234.912C269.51 234.428 269.859 232.681 269.808 230.95C269.472 231.172 269.1 231.328 268.711 231.412Z" fill="black"/>
<path d="M307.928 218.811C308.037 219.17 308.015 219.557 307.866 219.899C307.717 220.242 307.452 220.515 307.121 220.668C306.422 220.995 305.658 221.145 304.892 221.104L278.921 221.819C278.239 221.837 277.56 221.932 276.898 222.102C273.845 222.913 274.993 224.282 274.665 225.423C274.266 226.818 272.336 226.705 270.99 226.295C271.116 227.537 271.179 228.945 270.637 229.991C271.818 230.174 273.088 230.013 273.404 228.91C273.719 227.808 272.584 226.4 275.637 225.589C276.299 225.419 276.977 225.324 277.659 225.306L303.614 224.591C304.379 224.632 305.144 224.482 305.842 224.155C306.173 224.002 306.439 223.729 306.588 223.386C306.736 223.044 306.759 222.657 306.65 222.298C309.593 223.689 313.521 221.793 314.392 218.567C314.523 218.079 314.596 217.575 314.61 217.068C313.038 219.021 310.191 219.892 307.928 218.811Z" fill="black"/>
</g>
<path d="M273.088 127.734C275.322 132.657 277.297 137.701 279.005 142.845C280.384 146.99 281.6 151.344 281.141 155.703C280.683 160.062 278.198 164.464 274.161 165.837C272.445 166.421 270.607 166.425 268.803 166.469C264.482 166.574 260.17 166.935 255.889 167.55C253.897 167.891 251.888 168.123 249.872 168.243C247.02 168.339 244.169 167.877 241.327 168.116C236.726 168.504 232.357 170.732 227.74 170.732C227.176 170.768 226.613 170.66 226.1 170.418C225.259 169.947 224.884 168.927 224.598 167.986C223.955 165.859 223.45 163.418 224.54 161.496C225.881 159.129 228.93 158.654 231.575 158.445C237.529 158.009 243.491 157.704 249.459 157.529C254.552 157.381 260.069 157.181 264.018 153.842C264.284 153.645 264.502 153.385 264.653 153.084C264.802 152.573 264.784 152.026 264.602 151.527C263.037 145.189 262.366 138.648 262.609 132.11C262.582 131.523 262.729 130.942 263.03 130.445C263.387 130.046 263.851 129.767 264.363 129.643C267.888 128.47 271.663 128.362 275.246 129.329" fill="#FDA8A8"/>
<path d="M262.504 132.105C261.894 132.323 261.362 132.729 260.982 133.269C261.15 131.452 260.923 129.617 260.956 127.786C260.99 125.955 261.318 124.046 262.432 122.625C263.85 120.812 266.259 120.163 268.513 120.102C271.785 120.01 275.17 120.995 277.567 123.305C279.11 124.803 280.111 126.802 280.405 128.972C280.481 129.569 280.733 131.809 280.132 132.193C279.606 132.533 277.609 131.36 276.965 131.173C272.188 129.717 267.07 130.048 262.504 132.105Z" fill="#F75842"/>
<path opacity="0.1" d="M198.905 29.2028C200.531 29.2028 201.848 27.8368 201.848 26.1517C201.848 24.4667 200.531 23.1007 198.905 23.1007C197.279 23.1007 195.961 24.4667 195.961 26.1517C195.961 27.8368 197.279 29.2028 198.905 29.2028Z" fill="#6C63FF"/>
<path opacity="0.1" d="M218.669 88.0441C220.295 88.0441 221.613 86.6781 221.613 84.9931C221.613 83.308 220.295 81.942 218.669 81.942C217.043 81.942 215.725 83.308 215.725 84.9931C215.725 86.6781 217.043 88.0441 218.669 88.0441Z" fill="#6C63FF"/>
<path opacity="0.1" d="M162.74 32.2538C164.366 32.2538 165.684 30.8878 165.684 29.2028C165.684 27.5177 164.366 26.1517 162.74 26.1517C161.115 26.1517 159.797 27.5177 159.797 29.2028C159.797 30.8878 161.115 32.2538 162.74 32.2538Z" fill="#6C63FF"/>
<path opacity="0.1" d="M72.3291 176.088C76.5095 176.088 79.8984 172.576 79.8984 168.243C79.8984 163.91 76.5095 160.397 72.3291 160.397C68.1487 160.397 64.7598 163.91 64.7598 168.243C64.7598 172.576 68.1487 176.088 72.3291 176.088Z" fill="#6C63FF"/>
<path opacity="0.1" d="M377.204 46.6372C378.83 46.6372 380.148 45.2712 380.148 43.5862C380.148 41.9012 378.83 40.5352 377.204 40.5352C375.579 40.5352 374.261 41.9012 374.261 43.5862C374.261 45.2712 375.579 46.6372 377.204 46.6372Z" fill="#6C63FF"/>
<path opacity="0.1" d="M380.568 95.0179C385.91 95.0179 390.24 90.5296 390.24 84.9931C390.24 79.4565 385.91 74.9683 380.568 74.9683C375.227 74.9683 370.896 79.4565 370.896 84.9931C370.896 90.5296 375.227 95.0179 380.568 95.0179Z" fill="#6C63FF"/>
<path opacity="0.1" d="M396.128 59.7132C397.753 59.7132 399.071 58.3472 399.071 56.6621C399.071 54.9771 397.753 53.6111 396.128 53.6111C394.502 53.6111 393.184 54.9771 393.184 56.6621C393.184 58.3472 394.502 59.7132 396.128 59.7132Z" fill="#6C63FF"/>
<path opacity="0.1" d="M370.055 115.503C371.681 115.503 372.999 114.137 372.999 112.452C372.999 110.767 371.681 109.401 370.055 109.401C368.43 109.401 367.112 110.767 367.112 112.452C367.112 114.137 368.43 115.503 370.055 115.503Z" fill="#6C63FF"/>
<path opacity="0.1" d="M193.018 53.611C194.643 53.611 195.961 52.245 195.961 50.5599C195.961 48.8749 194.643 47.5089 193.018 47.5089C191.392 47.5089 190.074 48.8749 190.074 50.5599C190.074 52.245 191.392 53.611 193.018 53.611Z" fill="#6C63FF"/>
<path opacity="0.1" d="M82.8419 207.906C84.4677 207.906 85.7856 206.54 85.7856 204.855C85.7856 203.17 84.4677 201.804 82.8419 201.804C81.2162 201.804 79.8983 203.17 79.8983 204.855C79.8983 206.54 81.2162 207.906 82.8419 207.906Z" fill="#6C63FF"/>
<path opacity="0.1" d="M78.2163 138.168C79.842 138.168 81.16 136.802 81.16 135.117C81.16 133.432 79.842 132.066 78.2163 132.066C76.5906 132.066 75.2727 133.432 75.2727 135.117C75.2727 136.802 76.5906 138.168 78.2163 138.168Z" fill="#6C63FF"/>
<path opacity="0.1" d="M239.695 26.1518C241.321 26.1518 242.639 24.7858 242.639 23.1007C242.639 21.4157 241.321 20.0497 239.695 20.0497C238.069 20.0497 236.751 21.4157 236.751 23.1007C236.751 24.7858 238.069 26.1518 239.695 26.1518Z" fill="#6C63FF"/>
<path opacity="0.1" d="M249.367 53.611C250.993 53.611 252.311 52.245 252.311 50.5599C252.311 48.8749 250.993 47.5089 249.367 47.5089C247.741 47.5089 246.423 48.8749 246.423 50.5599C246.423 52.245 247.741 53.611 249.367 53.611Z" fill="#6C63FF"/>
<defs>
<linearGradient id="paint0_linear_25_5" x1="161.714" y1="307.122" x2="161.714" y2="71.4814" gradientUnits="userSpaceOnUse">
<stop stop-color="#808080" stop-opacity="0.25"/>
<stop offset="0.54" stop-color="#808080" stop-opacity="0.12"/>
<stop offset="1" stop-color="#808080" stop-opacity="0.1"/>
</linearGradient>
<linearGradient id="paint1_linear_25_5" x1="274.598" y1="305.557" x2="274.598" y2="70.1738" gradientUnits="userSpaceOnUse">
<stop stop-color="#808080" stop-opacity="0.25"/>
<stop offset="0.54" stop-color="#808080" stop-opacity="0.12"/>
<stop offset="1" stop-color="#808080" stop-opacity="0.1"/>
</linearGradient>
</defs>
</svg>
